<?xml version="1.0" standalone="no"?>
<!DOCTYPE svg PUBLIC "-//W3C//DTD SVG 20010904//EN"
 "http://www.w3.org/TR/2001/REC-SVG-20010904/DTD/svg10.dtd">
<svg version="1.0" xmlns="http://www.w3.org/2000/svg"
 width="280.000000pt" height="280.000000pt" viewBox="0 0 280.000000 280.000000"
 preserveAspectRatio="xMidYMid meet">
<metadata>
Created by potrace 1.11, written by Peter Selinger 2001-2013
</metadata>
<g transform="translate(0.000000,280.000000) scale(0.100000,-0.100000)"
fill="#000000" stroke="none">
<path d="M56 1822 c-4 -7 89 -175 202 -362 14 -24 13 -28 -27 -89 -22 -35 -41
-67 -41 -70 0 -6 258 -111 273 -111 4 0 7 110 7 244 0 229 -1 245 -20 269 -41
52 -204 111 -319 116 -30 1 -58 4 -62 7 -4 2 -10 0 -13 -4z"/>
<path d="M450 1820 c0 -5 10 -10 23 -10 13 0 33 -10 45 -23 22 -23 22 -29 22
-320 l0 -297 175 0 c107 0 184 4 199 11 21 10 35 33 67 117 14 35 -16 28 -31
-8 -23 -57 -67 -73 -201 -75 l-119 -2 0 139 0 138 129 0 c108 0 130 3 135 16
3 9 6 18 6 20 0 2 -61 4 -135 4 l-135 0 0 129 0 129 112 1 c61 0 121 -5 132
-11 30 -15 56 -50 56 -75 0 -12 5 -25 10 -28 11 -7 13 1 12 50 0 105 -1 105
-282 105 -140 0 -220 -4 -220 -10z"/>
<path d="M1720 1820 c0 -5 10 -10 23 -10 60 -1 65 -26 65 -321 1 -140 1 -269
1 -287 1 -33 2 -33 44 -30 l42 3 2 294 c3 366 4 361 -118 361 -33 0 -59 -4
-59 -10z"/>
<path d="M1116 1765 c-23 -23 -34 -72 -27 -117 0 -5 -15 -8 -34 -8 -28 0 -35
-4 -35 -19 0 -15 8 -21 33 -23 l32 -3 2 -177 c1 -164 3 -180 23 -208 12 -16
36 -33 55 -39 56 -15 148 5 159 36 5 12 1 14 -21 8 -53 -13 -64 -14 -88 -5
-13 5 -27 19 -31 32 -4 13 -8 98 -9 191 0 143 2 167 15 168 8 0 35 1 60 2 32
2 45 6 45 17 0 11 -15 16 -60 20 l-60 5 0 70 c0 81 -15 94 -59 50z"/>
<path d="M1505 1626 c-179 -83 -226 -357 -75 -433 50 -26 127 -30 194 -11 52
15 66 26 63 49 -5 28 -13 32 -49 20 -121 -38 -211 -1 -216 89 l-3 40 48 0
c116 1 216 29 250 68 34 39 40 88 17 132 -38 70 -136 90 -229 46z m137 -52
c23 -7 33 -46 18 -74 -6 -12 -27 -28 -45 -36 -35 -14 -169 -23 -181 -12 -10
11 35 76 69 102 44 33 79 38 139 20z"/>
<path d="M1936 1641 c-4 -5 7 -12 23 -16 47 -10 78 -50 120 -159 21 -55 57
-146 79 -202 l39 -101 -19 -51 c-19 -50 -65 -101 -94 -103 -8 -1 -18 -3 -24
-4 -5 -1 -13 -3 -17 -4 -5 -1 0 -8 11 -16 22 -16 69 -10 104 14 35 24 54 65
141 301 17 47 36 99 42 115 7 17 13 35 15 40 1 6 16 47 33 93 17 45 31 85 31
87 0 3 -10 5 -22 5 -24 0 -29 -10 -113 -240 -15 -41 -31 -79 -35 -83 -4 -4
-34 58 -66 140 -70 175 -87 193 -185 193 -32 0 -60 -4 -63 -9z"/>
<path d="M2542 1643 c-13 -3 -38 -20 -57 -39 -28 -28 -35 -42 -35 -75 0 -78
27 -105 165 -164 77 -33 95 -51 95 -91 0 -44 -36 -68 -99 -68 -69 0 -107 19
-128 65 -23 49 -33 49 -33 0 0 -74 60 -109 180 -106 84 3 127 25 154 78 38 79
-4 146 -122 192 -94 37 -125 63 -125 105 0 48 30 69 97 67 63 -3 97 -23 120
-72 21 -43 28 -40 28 10 0 42 -22 71 -71 91 -31 13 -118 17 -169 7z"/>
<path d="M70 1311 c25 -20 163 -91 290 -149 128 -59 390 -140 506 -157 22 -3
45 -8 53 -11 86 -29 524 -25 632 6 17 5 34 9 38 8 3 -1 35 7 70 17 l63 18 -6
35 c-3 19 -7 36 -9 38 -2 3 -33 -4 -68 -15 -66 -19 -107 -30 -146 -37 -13 -2
-35 -6 -50 -9 -125 -25 -444 -25 -557 0 -11 2 -37 7 -56 9 -184 26 -515 135
-725 237 -41 20 -52 23 -35 10z"/>
<path d="M142 1216 c-12 -14 -92 -173 -92 -182 0 -10 150 4 210 20 68 18 130
44 130 54 0 4 -54 33 -120 64 -86 40 -122 53 -128 44z"/>
</g>
</svg>
